<svg xmlns="http://www.w3.org/2000/svg" viewBox="0 0 512 512" fill="none">
  <circle cx="256" cy="256" r="256" fill="black"/>
  <path d="M269.781 260.281H339.672V360.266C328.797 363.734 317.734 366.359 306.484 368.141C295.234 369.922 282.203 370.812 267.391 370.812C236.266 370.812 212.031 361.578 194.688 343.109C177.344 324.547 168.672 298.578 168.672 265.203C168.672 243.828 172.938 225.125 181.469 209.094C190.094 192.969 202.469 180.688 218.594 172.25C234.719 163.719 253.609 159.453 275.266 159.453C297.203 159.453 317.641 163.484 336.578 171.547L327.297 192.641C308.734 184.766 290.875 180.828 273.719 180.828C248.688 180.828 229.141 188.281 215.078 203.188C201.016 218.094 193.984 238.766 193.984 265.203C193.984 292.953 200.734 314 214.234 328.344C227.828 342.688 247.75 349.859 274 349.859C288.25 349.859 302.172 348.219 315.766 344.938V281.656H269.781V260.281Z" fill="white"/>
</svg>